<svg width="470" height="280" viewBox="0 0 470 280" fill="none" xmlns="http://www.w3.org/2000/svg">
<rect width="470" height="280" rx="10" fill="#141414"/>
<path d="M233 90L233 190" stroke="#F26419" stroke-width="10" stroke-linecap="round"/>
<path d="M283 140H183" stroke="#F26419" stroke-width="10" stroke-linecap="round"/>
<path d="M178.818 46.0156V43.1818H195.704V46.0156H188.896V65H185.615V46.0156H178.818ZM203.699 65.3303C202.165 65.3303 200.826 64.9787 199.683 64.2756C198.539 63.5724 197.652 62.5888 197.019 61.3246C196.387 60.0604 196.071 58.5831 196.071 56.8928C196.071 55.1953 196.387 53.7109 197.019 52.4396C197.652 51.1683 198.539 50.1811 199.683 49.478C200.826 48.7749 202.165 48.4233 203.699 48.4233C205.233 48.4233 206.572 48.7749 207.715 49.478C208.859 50.1811 209.747 51.1683 210.379 52.4396C211.011 53.7109 211.327 55.1953 211.327 56.8928C211.327 58.5831 211.011 60.0604 210.379 61.3246C209.747 62.5888 208.859 63.5724 207.715 64.2756C206.572 64.9787 205.233 65.3303 203.699 65.3303ZM203.71 62.6562C204.704 62.6562 205.528 62.3935 206.181 61.8679C206.835 61.3423 207.318 60.6428 207.63 59.7692C207.95 58.8956 208.11 57.9332 208.11 56.8821C208.11 55.8381 207.95 54.8793 207.63 54.0057C207.318 53.125 206.835 52.4183 206.181 51.8857C205.528 51.353 204.704 51.0866 203.71 51.0866C202.708 51.0866 201.877 51.353 201.217 51.8857C200.563 52.4183 200.077 53.125 199.757 54.0057C199.445 54.8793 199.289 55.8381 199.289 56.8821C199.289 57.9332 199.445 58.8956 199.757 59.7692C200.077 60.6428 200.563 61.3423 201.217 61.8679C201.877 62.3935 202.708 62.6562 203.71 62.6562ZM214.883 65V48.6364H221.669C223.515 48.6364 224.978 49.0305 226.058 49.8189C227.138 50.6001 227.677 51.6619 227.677 53.0043C227.677 53.9631 227.372 54.723 226.761 55.2841C226.15 55.8452 225.341 56.2216 224.332 56.4134C225.064 56.4986 225.735 56.7187 226.346 57.0739C226.956 57.4219 227.446 57.8906 227.816 58.4801C228.192 59.0696 228.38 59.7727 228.38 60.5895C228.38 61.456 228.157 62.223 227.709 62.8906C227.262 63.5511 226.612 64.0696 225.76 64.446C224.915 64.8153 223.895 65 222.702 65H214.883ZM217.876 62.3366H222.702C223.491 62.3366 224.108 62.1484 224.556 61.772C225.003 61.3956 225.227 60.8842 225.227 60.2379C225.227 59.478 225.003 58.8814 224.556 58.4482C224.108 58.0078 223.491 57.7876 222.702 57.7876H217.876V62.3366ZM217.876 55.4545H221.701C222.297 55.4545 222.809 55.3693 223.235 55.1989C223.668 55.0284 223.998 54.7869 224.226 54.4744C224.46 54.1548 224.577 53.7784 224.577 53.3452C224.577 52.7131 224.318 52.2195 223.799 51.8643C223.281 51.5092 222.571 51.3317 221.669 51.3317H217.876V55.4545ZM236.637 65.3622C235.6 65.3622 234.662 65.1705 233.824 64.7869C232.986 64.3963 232.322 63.8317 231.832 63.093C231.349 62.3544 231.108 61.4489 231.108 60.3764C231.108 59.4531 231.285 58.6932 231.64 58.0966C231.995 57.5 232.475 57.0277 233.079 56.6797C233.682 56.3317 234.357 56.0689 235.103 55.8913C235.848 55.7138 236.608 55.5788 237.383 55.4865C238.363 55.3729 239.158 55.2805 239.769 55.2095C240.38 55.1314 240.824 55.0071 241.101 54.8366C241.378 54.6662 241.516 54.3892 241.516 54.0057V53.9311C241.516 53.0007 241.253 52.2798 240.728 51.7685C240.209 51.2571 239.435 51.0014 238.405 51.0014C237.333 51.0014 236.488 51.2393 235.87 51.7152C235.259 52.1839 234.836 52.706 234.602 53.2812L231.608 52.5994C231.964 51.6051 232.482 50.8026 233.164 50.1918C233.853 49.5739 234.645 49.1264 235.54 48.8494C236.434 48.5653 237.375 48.4233 238.363 48.4233C239.016 48.4233 239.709 48.5014 240.44 48.6577C241.179 48.8068 241.868 49.0838 242.507 49.4886C243.153 49.8935 243.682 50.4723 244.094 51.2251C244.506 51.9709 244.712 52.9403 244.712 54.1335V65H241.601V62.7628H241.473C241.267 63.1747 240.959 63.5795 240.547 63.9773C240.135 64.375 239.606 64.7053 238.959 64.968C238.313 65.2308 237.539 65.3622 236.637 65.3622ZM237.329 62.8054C238.21 62.8054 238.963 62.6314 239.588 62.2834C240.22 61.9354 240.699 61.4808 241.026 60.9197C241.36 60.3516 241.527 59.7443 241.527 59.098V56.9886C241.413 57.1023 241.193 57.2088 240.866 57.3082C240.547 57.4006 240.181 57.4822 239.769 57.5533C239.357 57.6172 238.956 57.6776 238.565 57.7344C238.174 57.7841 237.848 57.8267 237.585 57.8622C236.967 57.9403 236.402 58.0717 235.891 58.2564C235.387 58.4411 234.982 58.7074 234.677 59.0554C234.378 59.3963 234.229 59.8509 234.229 60.419C234.229 61.2074 234.52 61.804 235.103 62.2088C235.685 62.6065 236.427 62.8054 237.329 62.8054ZM248.955 71.1364V48.6364H252.066V51.2891H252.332C252.517 50.9482 252.783 50.554 253.131 50.1065C253.479 49.6591 253.962 49.2685 254.58 48.9347C255.198 48.5938 256.014 48.4233 257.03 48.4233C258.351 48.4233 259.53 48.7571 260.567 49.4247C261.604 50.0923 262.417 51.0547 263.007 52.3118C263.603 53.5689 263.902 55.0817 263.902 56.8501C263.902 58.6186 263.607 60.1349 263.017 61.3991C262.428 62.6562 261.618 63.6257 260.588 64.3075C259.559 64.9822 258.383 65.3196 257.062 65.3196C256.068 65.3196 255.255 65.1527 254.622 64.8189C253.997 64.4851 253.507 64.0945 253.152 63.647C252.797 63.1996 252.524 62.8018 252.332 62.4538H252.14V71.1364H248.955ZM252.076 56.8182C252.076 57.9687 252.243 58.9773 252.577 59.8438C252.911 60.7102 253.394 61.3885 254.026 61.8786C254.658 62.3615 255.432 62.603 256.348 62.603C257.3 62.603 258.095 62.3509 258.735 61.8466C259.374 61.3352 259.857 60.6428 260.184 59.7692C260.517 58.8956 260.684 57.9119 260.684 56.8182C260.684 55.7386 260.521 54.7692 260.194 53.9098C259.875 53.0504 259.392 52.3722 258.745 51.875C258.106 51.3778 257.307 51.1293 256.348 51.1293C255.425 51.1293 254.644 51.3672 254.005 51.843C253.372 52.3189 252.893 52.983 252.566 53.8352C252.24 54.6875 252.076 55.6818 252.076 56.8182ZM269.867 54.2614H274.619C276.622 54.2614 278.163 54.7585 279.242 55.7528C280.322 56.7472 280.862 58.0291 280.862 59.5987C280.862 60.6214 280.62 61.5412 280.137 62.358C279.654 63.1747 278.948 63.821 278.017 64.2969C277.087 64.7656 275.954 65 274.619 65H267.47V48.6364H270.592V62.2514H274.619C275.535 62.2514 276.288 62.0135 276.877 61.5376C277.467 61.0547 277.762 60.4403 277.762 59.6946C277.762 58.9062 277.467 58.2635 276.877 57.7663C276.288 57.2621 275.535 57.0099 274.619 57.0099H269.867V54.2614ZM283.184 65V48.6364H286.37V65H283.184Z" fill="white"/>
<path d="M161.424 237V220.636H164.609V227.497H166.143L171.544 220.636H175.486L169.147 228.594L175.561 237H171.608L166.676 230.459H164.609V237H161.424ZM182.797 237.362C181.76 237.362 180.823 237.17 179.984 236.787C179.146 236.396 178.482 235.832 177.992 235.093C177.509 234.354 177.268 233.449 177.268 232.376C177.268 231.453 177.445 230.693 177.801 230.097C178.156 229.5 178.635 229.028 179.239 228.68C179.842 228.332 180.517 228.069 181.263 227.891C182.009 227.714 182.769 227.579 183.543 227.487C184.523 227.373 185.318 227.281 185.929 227.21C186.54 227.131 186.984 227.007 187.261 226.837C187.538 226.666 187.676 226.389 187.676 226.006V225.931C187.676 225.001 187.413 224.28 186.888 223.768C186.369 223.257 185.595 223.001 184.565 223.001C183.493 223.001 182.648 223.239 182.03 223.715C181.419 224.184 180.997 224.706 180.762 225.281L177.769 224.599C178.124 223.605 178.642 222.803 179.324 222.192C180.013 221.574 180.805 221.126 181.7 220.849C182.595 220.565 183.536 220.423 184.523 220.423C185.176 220.423 185.869 220.501 186.6 220.658C187.339 220.807 188.028 221.084 188.667 221.489C189.313 221.893 189.842 222.472 190.254 223.225C190.666 223.971 190.872 224.94 190.872 226.134V237H187.761V234.763H187.634C187.428 235.175 187.119 235.58 186.707 235.977C186.295 236.375 185.766 236.705 185.119 236.968C184.473 237.231 183.699 237.362 182.797 237.362ZM183.489 234.805C184.37 234.805 185.123 234.631 185.748 234.283C186.38 233.935 186.859 233.481 187.186 232.92C187.52 232.352 187.687 231.744 187.687 231.098V228.989C187.573 229.102 187.353 229.209 187.026 229.308C186.707 229.401 186.341 229.482 185.929 229.553C185.517 229.617 185.116 229.678 184.725 229.734C184.335 229.784 184.008 229.827 183.745 229.862C183.127 229.94 182.563 230.072 182.051 230.256C181.547 230.441 181.142 230.707 180.837 231.055C180.538 231.396 180.389 231.851 180.389 232.419C180.389 233.207 180.68 233.804 181.263 234.209C181.845 234.607 182.587 234.805 183.489 234.805ZM193.085 223.385V220.636H206.892V223.385H201.555V237H198.444V223.385H193.085ZM216.552 237.33C214.94 237.33 213.552 236.986 212.387 236.297C211.229 235.601 210.334 234.624 209.702 233.367C209.077 232.103 208.765 230.622 208.765 228.925C208.765 227.249 209.077 225.771 209.702 224.493C210.334 223.214 211.215 222.217 212.344 221.499C213.481 220.782 214.809 220.423 216.329 220.423C217.252 220.423 218.147 220.576 219.013 220.881C219.88 221.187 220.657 221.666 221.346 222.32C222.035 222.973 222.579 223.822 222.976 224.866C223.374 225.903 223.573 227.163 223.573 228.648V229.777H210.565V227.391H220.451C220.451 226.553 220.281 225.81 219.94 225.164C219.599 224.511 219.12 223.996 218.502 223.619C217.891 223.243 217.174 223.055 216.35 223.055C215.455 223.055 214.674 223.275 214.006 223.715C213.346 224.148 212.834 224.717 212.472 225.42C212.117 226.116 211.939 226.872 211.939 227.689V229.553C211.939 230.647 212.131 231.577 212.515 232.344C212.905 233.112 213.449 233.697 214.145 234.102C214.841 234.5 215.654 234.699 216.584 234.699C217.188 234.699 217.738 234.614 218.236 234.443C218.733 234.266 219.162 234.003 219.525 233.655C219.887 233.307 220.164 232.877 220.356 232.366L223.37 232.909C223.129 233.797 222.696 234.575 222.071 235.242C221.453 235.903 220.675 236.418 219.738 236.787C218.807 237.149 217.745 237.33 216.552 237.33ZM237.569 220.636V223.385H230.25V237H227.107V220.636H237.569ZM247.066 237.33C245.532 237.33 244.193 236.979 243.05 236.276C241.907 235.572 241.019 234.589 240.387 233.325C239.755 232.06 239.438 230.583 239.438 228.893C239.438 227.195 239.755 225.711 240.387 224.44C241.019 223.168 241.907 222.181 243.05 221.478C244.193 220.775 245.532 220.423 247.066 220.423C248.6 220.423 249.939 220.775 251.083 221.478C252.226 222.181 253.114 223.168 253.746 224.44C254.378 225.711 254.694 227.195 254.694 228.893C254.694 230.583 254.378 232.06 253.746 233.325C253.114 234.589 252.226 235.572 251.083 236.276C249.939 236.979 248.6 237.33 247.066 237.33ZM247.077 234.656C248.071 234.656 248.895 234.393 249.549 233.868C250.202 233.342 250.685 232.643 250.997 231.769C251.317 230.896 251.477 229.933 251.477 228.882C251.477 227.838 251.317 226.879 250.997 226.006C250.685 225.125 250.202 224.418 249.549 223.886C248.895 223.353 248.071 223.087 247.077 223.087C246.076 223.087 245.245 223.353 244.584 223.886C243.931 224.418 243.444 225.125 243.125 226.006C242.812 226.879 242.656 227.838 242.656 228.882C242.656 229.933 242.812 230.896 243.125 231.769C243.444 232.643 243.931 233.342 244.584 233.868C245.245 234.393 246.076 234.656 247.077 234.656ZM258.25 243.136V220.636H261.361V223.289H261.627C261.812 222.948 262.078 222.554 262.426 222.107C262.774 221.659 263.257 221.268 263.875 220.935C264.493 220.594 265.309 220.423 266.325 220.423C267.646 220.423 268.825 220.757 269.862 221.425C270.899 222.092 271.712 223.055 272.302 224.312C272.898 225.569 273.196 227.082 273.196 228.85C273.196 230.619 272.902 232.135 272.312 233.399C271.723 234.656 270.913 235.626 269.883 236.308C268.853 236.982 267.678 237.32 266.357 237.32C265.363 237.32 264.549 237.153 263.917 236.819C263.292 236.485 262.802 236.094 262.447 235.647C262.092 235.2 261.819 234.802 261.627 234.454H261.435V243.136H258.25ZM261.371 228.818C261.371 229.969 261.538 230.977 261.872 231.844C262.206 232.71 262.689 233.388 263.321 233.879C263.953 234.362 264.727 234.603 265.643 234.603C266.595 234.603 267.39 234.351 268.03 233.847C268.669 233.335 269.152 232.643 269.478 231.769C269.812 230.896 269.979 229.912 269.979 228.818C269.979 227.739 269.816 226.769 269.489 225.91C269.169 225.05 268.687 224.372 268.04 223.875C267.401 223.378 266.602 223.129 265.643 223.129C264.72 223.129 263.939 223.367 263.299 223.843C262.667 224.319 262.188 224.983 261.861 225.835C261.535 226.687 261.371 227.682 261.371 228.818ZM279.887 232.536L287.099 220.636H290.53V237H287.408V225.089L280.228 237H276.765V220.636H279.887V232.536ZM297.934 232.536L305.146 220.636H308.576V237H305.455V225.089L298.275 237H294.812V220.636H297.934V232.536Z" fill="white"/>
</svg>
